<?xml version="1.0" encoding="iso-8859-1"?>
<!-- Generator: Adobe Illustrator 19.0.0, SVG Export Plug-In . SVG Version: 6.00 Build 0)  -->
<svg version="1.1" id="Capa_1" xmlns="http://www.w3.org/2000/svg" xmlns:xlink="http://www.w3.org/1999/xlink" x="0px" y="0px"
	 viewBox="0 0 512.002 512.002" style="enable-background:new 0 0 512.002 512.002;" xml:space="preserve">
<g>
	<g>
		<circle cx="106" cy="202.5" r="7.5"/>
	</g>
</g>
<g>
	<g>
		<circle cx="106" cy="232.5" r="7.5"/>
	</g>
</g>
<g>
	<g>
		<path d="M128.336,50.001c4.762-5.312,7.665-12.323,7.665-20.001c0-16.542-13.458-30-30-30s-30,13.458-30,30
			c0,7.678,2.903,14.689,7.665,20.001C65.857,58.409,53.501,76.535,53.501,97.5c0,28.949,23.551,52.5,52.5,52.5
			c28.949,0,52.5-23.551,52.5-52.5C158.501,76.535,146.145,58.409,128.336,50.001z M106.001,15c8.271,0,15,6.729,15,15
			s-6.729,15-15,15c-8.271,0-15-6.729-15-15S97.73,15,106.001,15z M106.001,135c-20.678,0-37.5-16.822-37.5-37.5
			S85.323,60,106.001,60c20.678,0,37.5,16.822,37.5,37.5S126.679,135,106.001,135z"/>
	</g>
</g>
<g>
	<g>
		<path d="M406.001,45c-10.795,0-20.838,3.278-29.191,8.887c-0.917-0.09-1.533,0.234-1.588,1.12
			c-13.148,9.551-21.721,25.035-21.721,42.493c0,28.949,23.551,52.5,52.5,52.5c28.949,0,52.5-23.551,52.5-52.5S434.95,45,406.001,45
			z M406.001,60c12.242,0,23.131,5.898,29.98,15h-29.98c-7.614,0-14.583-3.859-18.693-9.988C392.815,61.831,399.196,60,406.001,60z
			 M406.001,135c-20.678,0-37.5-16.822-37.5-37.5c0-8.43,2.798-16.219,7.512-22.489c6.96,9.252,18,14.989,29.988,14.989h36.745
			c0.494,2.424,0.755,4.932,0.755,7.5C443.501,118.178,426.679,135,406.001,135z"/>
	</g>
</g>
<g>
	<g>
		<path d="M457.563,185.385C454.419,173.66,443.704,165,431.001,165h-50c-12.465,0-23.013,8.339-26.375,19.729
			c-42.52-3.268-76.125-38.886-76.125-82.229c0-4.142-3.358-7.5-7.5-7.5c-4.142,0-7.5,3.358-7.5,7.5
			c0,51.239,39.729,93.372,90,97.214V292.5c0,14.269,5.73,27.22,15,36.692v159.902l-24.872,8.291
			c-3.93,1.31-6.053,5.557-4.744,9.487c1.048,3.143,3.974,5.13,7.114,5.13c0.786,0,1.586-0.125,2.373-0.387l30-10
			c3.063-1.021,5.128-3.887,5.128-7.115V339.924c6.824,3.251,14.452,5.076,22.5,5.076c8.048,0,15.676-1.825,22.5-5.076v149.17
			l-24.872,8.291c-3.93,1.31-6.053,5.557-4.744,9.487c1.048,3.143,3.974,5.13,7.114,5.13c0.786,0,1.586-0.125,2.373-0.387l30-10
			c3.063-1.021,5.128-3.887,5.128-7.115V329.192c7.715-7.883,12.965-18.177,14.512-29.635c28.41-3.472,50.49-27.727,50.49-57.057
			C508.501,213.014,486.188,188.654,457.563,185.385z M406.002,330c-18.11,0-33.262-12.904-36.746-30h73.491
			C439.263,317.096,424.112,330,406.002,330z M443.501,285h-75v-92.5c0-6.893,5.607-12.5,12.5-12.5h50c6.893,0,12.5,5.607,12.5,12.5
			V285z M458.501,284.324v-83.648c19.868,3.554,35,20.949,35,41.824S478.369,280.77,458.501,284.324z"/>
	</g>
</g>
<g>
	<g>
		<path d="M150.999,345c4.142,0,7.5-3.358,7.5-7.5V199.714c50.271-3.842,90-45.976,90-97.214c0.002-4.142-3.356-7.5-7.498-7.5
			c-4.142,0-7.5,3.358-7.5,7.5c0,43.344-33.605,78.961-76.125,82.229c-3.362-11.39-13.91-19.729-26.375-19.729h-50
			c-12.703,0-23.418,8.66-26.562,20.385C25.814,188.654,3.501,213.014,3.501,242.5c0,23.265,14.243,44.22,35.336,53.059
			c-0.215,2.187-0.336,4.39-0.336,6.606V337.5c0,4.142,3.358,7.5,7.5,7.5h22.5v149.5c0,3.228,2.066,6.094,5.128,7.115l30,10
			c0.787,0.262,1.586,0.387,2.373,0.387c3.14,0,6.066-1.988,7.114-5.13c1.31-3.93-0.814-8.177-4.744-9.487L83.5,489.094V345h45
			v149.5c0,3.228,2.066,6.094,5.128,7.115l30,10c0.787,0.262,1.586,0.387,2.373,0.387c3.14,0,6.066-1.988,7.114-5.13
			c1.31-3.93-0.814-8.177-4.744-9.487l-24.872-8.291V345H150.999z M68.501,192.5c0-6.893,5.607-12.5,12.5-12.5h50
			c6.893,0,12.5,5.607,12.5,12.5V255h-75V192.5z M42.071,280.55c-14.177-7.088-23.57-21.806-23.57-38.05
			c0-20.875,15.132-38.27,35-41.824v59.083C48.454,266.001,44.609,273.049,42.071,280.55z M53.501,330v-27.835
			c0-11.686,3.905-22.982,11.039-32.165h78.961v60H53.501z"/>
	</g>
</g>
<g>
	<g>
		<path d="M211.001,95h-15c-4.142,0-7.5,3.358-7.5,7.5c0,4.142,3.358,7.5,7.5,7.5h15c4.142,0,7.5-3.358,7.5-7.5
			C218.501,98.358,215.143,95,211.001,95z"/>
	</g>
</g>
<g>
	<g>
		<path d="M314.001,95h-15c-4.142,0-7.5,3.358-7.5,7.5c0,4.142,3.358,7.5,7.5,7.5h15c4.142,0,7.5-3.358,7.5-7.5
			C321.501,98.358,318.143,95,314.001,95z"/>
	</g>
</g>
<g>
	<g>
		<path d="M302.023,55.478c-2.929-2.929-7.678-2.929-10.606,0l-10.606,10.606c-2.929,2.929-2.929,7.678,0,10.606
			c1.464,1.465,3.383,2.197,5.303,2.197c1.919,0,3.839-0.732,5.303-2.197l10.606-10.606
			C304.952,63.155,304.952,58.406,302.023,55.478z"/>
	</g>
</g>
<g>
	<g>
		<path d="M255.001,36c-4.142,0-7.5,3.358-7.5,7.5v15c0,4.142,3.358,7.5,7.5,7.5c4.142,0,7.5-3.358,7.5-7.5v-15
			C262.501,39.358,259.143,36,255.001,36z"/>
	</g>
</g>
<g>
	<g>
		<path d="M229.191,66.084l-10.606-10.606c-2.929-2.929-7.678-2.929-10.606,0c-2.929,2.929-2.929,7.678,0,10.606l10.606,10.606
			c1.464,1.464,3.384,2.197,5.303,2.197s3.839-0.732,5.303-2.197C232.12,73.761,232.12,69.012,229.191,66.084z"/>
	</g>
</g>
<g>
</g>
<g>
</g>
<g>
</g>
<g>
</g>
<g>
</g>
<g>
</g>
<g>
</g>
<g>
</g>
<g>
</g>
<g>
</g>
<g>
</g>
<g>
</g>
<g>
</g>
<g>
</g>
<g>
</g>
</svg>
